<mxfile host="Electron" agent="Mozilla/5.0 (Windows NT 10.0; Win64; x64) AppleWebKit/537.36 (KHTML, like Gecko) draw.io/24.7.8 Chrome/128.0.6613.36 Electron/32.0.1 Safari/537.36" version="24.7.8" pages="2">
  <diagram name="manage_devices" id="ILDC4nfEBjBnQPvJnA1N">
    <mxGraphModel dx="4037" dy="1858" grid="1" gridSize="10" guides="1" tooltips="1" connect="1" arrows="1" fold="1" page="1" pageScale="1" pageWidth="850" pageHeight="1100" math="0" shadow="0">
      <root>
        <mxCell id="0" />
        <mxCell id="1" parent="0" />
        <mxCell id="lIUbMRTAkBy0YjpKBGl3-1" value="EDMS User" style="swimlane;whiteSpace=wrap;fontSize=16;fontStyle=1" parent="1" vertex="1">
          <mxGeometry x="-340" y="128" width="700" height="1742" as="geometry" />
        </mxCell>
        <mxCell id="lIUbMRTAkBy0YjpKBGl3-2" style="edgeStyle=orthogonalEdgeStyle;rounded=0;orthogonalLoop=1;jettySize=auto;html=1;exitX=0.5;exitY=1;exitDx=0;exitDy=0;entryX=0.5;entryY=0;entryDx=0;entryDy=0;fontStyle=1" parent="lIUbMRTAkBy0YjpKBGl3-1" source="lIUbMRTAkBy0YjpKBGl3-3" target="lIUbMRTAkBy0YjpKBGl3-5" edge="1">
          <mxGeometry relative="1" as="geometry" />
        </mxCell>
        <mxCell id="lIUbMRTAkBy0YjpKBGl3-3" value="Navigate toÂ &#xa;Dashboard" style="rounded=1;fontSize=19;fillColor=#fff2cc;strokeColor=#d6b656;fontStyle=1" parent="lIUbMRTAkBy0YjpKBGl3-1" vertex="1">
          <mxGeometry x="106.01" y="110" width="200" height="62.5" as="geometry" />
        </mxCell>
        <mxCell id="lIUbMRTAkBy0YjpKBGl3-4" style="edgeStyle=orthogonalEdgeStyle;rounded=0;orthogonalLoop=1;jettySize=auto;html=1;exitX=1;exitY=0.5;exitDx=0;exitDy=0;entryX=0;entryY=0.5;entryDx=0;entryDy=0;fontStyle=1" parent="lIUbMRTAkBy0YjpKBGl3-1" source="lIUbMRTAkBy0YjpKBGl3-5" target="lIUbMRTAkBy0YjpKBGl3-9" edge="1">
          <mxGeometry relative="1" as="geometry" />
        </mxCell>
        <mxCell id="lIUbMRTAkBy0YjpKBGl3-5" value="Edit Device?" style="rhombus;fontSize=19;fillColor=#dae8fc;strokeColor=#6c8ebf;fontStyle=1" parent="lIUbMRTAkBy0YjpKBGl3-1" vertex="1">
          <mxGeometry x="108.50999999999999" y="242" width="195" height="140" as="geometry" />
        </mxCell>
        <mxCell id="lIUbMRTAkBy0YjpKBGl3-6" value="Yes" style="text;html=1;align=center;verticalAlign=middle;whiteSpace=wrap;rounded=0;fontSize=19;fontStyle=1" parent="lIUbMRTAkBy0YjpKBGl3-1" vertex="1">
          <mxGeometry x="276" y="272" width="60" height="30" as="geometry" />
        </mxCell>
        <mxCell id="lIUbMRTAkBy0YjpKBGl3-7" value="Enter Updated&#xa;Device details" style="whiteSpace=wrap;rounded=1;fontSize=19;fillColor=#fff2cc;strokeColor=#d6b656;fontStyle=1" parent="lIUbMRTAkBy0YjpKBGl3-1" vertex="1">
          <mxGeometry x="418" y="231.38" width="200" height="70.62" as="geometry" />
        </mxCell>
        <mxCell id="lIUbMRTAkBy0YjpKBGl3-8" value="No" style="text;html=1;align=center;verticalAlign=middle;whiteSpace=wrap;rounded=0;fontSize=19;fontStyle=1" parent="lIUbMRTAkBy0YjpKBGl3-1" vertex="1">
          <mxGeometry x="146" y="382" width="60" height="30" as="geometry" />
        </mxCell>
        <mxCell id="lIUbMRTAkBy0YjpKBGl3-9" value="Select Edit Device button" style="whiteSpace=wrap;rounded=1;fontSize=19;fillColor=#fff2cc;strokeColor=#d6b656;fontStyle=1" parent="lIUbMRTAkBy0YjpKBGl3-1" vertex="1">
          <mxGeometry x="418" y="110" width="200" height="62.5" as="geometry" />
        </mxCell>
        <mxCell id="lIUbMRTAkBy0YjpKBGl3-10" style="edgeStyle=orthogonalEdgeStyle;rounded=0;orthogonalLoop=1;jettySize=auto;html=1;exitX=0.5;exitY=1;exitDx=0;exitDy=0;entryX=0.5;entryY=0;entryDx=0;entryDy=0;fontStyle=1" parent="lIUbMRTAkBy0YjpKBGl3-1" source="lIUbMRTAkBy0YjpKBGl3-5" target="lIUbMRTAkBy0YjpKBGl3-24" edge="1">
          <mxGeometry relative="1" as="geometry" />
        </mxCell>
        <mxCell id="lIUbMRTAkBy0YjpKBGl3-11" style="edgeStyle=orthogonalEdgeStyle;rounded=0;orthogonalLoop=1;jettySize=auto;html=1;exitX=0.5;exitY=1;exitDx=0;exitDy=0;entryX=0.5;entryY=0;entryDx=0;entryDy=0;fontStyle=1" parent="lIUbMRTAkBy0YjpKBGl3-1" source="lIUbMRTAkBy0YjpKBGl3-13" target="lIUbMRTAkBy0YjpKBGl3-19" edge="1">
          <mxGeometry relative="1" as="geometry">
            <mxPoint x="496" y="966" as="targetPoint" />
          </mxGeometry>
        </mxCell>
        <mxCell id="lIUbMRTAkBy0YjpKBGl3-12" style="edgeStyle=orthogonalEdgeStyle;rounded=0;orthogonalLoop=1;jettySize=auto;html=1;exitX=0;exitY=0.5;exitDx=0;exitDy=0;entryX=1;entryY=0.5;entryDx=0;entryDy=0;" parent="lIUbMRTAkBy0YjpKBGl3-1" source="lIUbMRTAkBy0YjpKBGl3-13" target="lIUbMRTAkBy0YjpKBGl3-21" edge="1">
          <mxGeometry relative="1" as="geometry" />
        </mxCell>
        <mxCell id="lIUbMRTAkBy0YjpKBGl3-13" value="Confirm delete?" style="rhombus;fontSize=19;fillColor=#dae8fc;strokeColor=#6c8ebf;fontStyle=1" parent="lIUbMRTAkBy0YjpKBGl3-1" vertex="1">
          <mxGeometry x="420.50000000000006" y="1137.75" width="195" height="145" as="geometry" />
        </mxCell>
        <mxCell id="lIUbMRTAkBy0YjpKBGl3-14" value="Yes" style="text;html=1;strokeColor=none;fillColor=none;align=center;verticalAlign=middle;whiteSpace=wrap;rounded=0;fontSize=19;fontStyle=1" parent="lIUbMRTAkBy0YjpKBGl3-1" vertex="1">
          <mxGeometry x="460" y="1271" width="60" height="30" as="geometry" />
        </mxCell>
        <mxCell id="lIUbMRTAkBy0YjpKBGl3-15" value="No" style="text;html=1;strokeColor=none;fillColor=none;align=center;verticalAlign=middle;whiteSpace=wrap;rounded=0;fontSize=19;fontStyle=1" parent="lIUbMRTAkBy0YjpKBGl3-1" vertex="1">
          <mxGeometry x="380" y="1172" width="60" height="30" as="geometry" />
        </mxCell>
        <mxCell id="lIUbMRTAkBy0YjpKBGl3-16" style="edgeStyle=orthogonalEdgeStyle;rounded=0;orthogonalLoop=1;jettySize=auto;html=1;exitX=0.5;exitY=1;exitDx=0;exitDy=0;entryX=0.5;entryY=0;entryDx=0;entryDy=0;fontStyle=1" parent="lIUbMRTAkBy0YjpKBGl3-1" source="lIUbMRTAkBy0YjpKBGl3-17" target="lIUbMRTAkBy0YjpKBGl3-3" edge="1">
          <mxGeometry relative="1" as="geometry" />
        </mxCell>
        <mxCell id="lIUbMRTAkBy0YjpKBGl3-17" value="" style="ellipse;fillColor=strokeColor;html=1;fontStyle=1" parent="lIUbMRTAkBy0YjpKBGl3-1" vertex="1">
          <mxGeometry x="191" y="32" width="30" height="30" as="geometry" />
        </mxCell>
        <mxCell id="lIUbMRTAkBy0YjpKBGl3-18" value="Select Delete Device&#xa;button" style="rounded=1;fontSize=19;fillColor=#fff2cc;strokeColor=#d6b656;fontStyle=1" parent="lIUbMRTAkBy0YjpKBGl3-1" vertex="1">
          <mxGeometry x="372" y="900" width="254" height="62.5" as="geometry" />
        </mxCell>
        <mxCell id="lIUbMRTAkBy0YjpKBGl3-19" value="Select Confirm button" style="whiteSpace=wrap;rounded=1;fontSize=19;fillColor=#fff2cc;strokeColor=#d6b656;fontStyle=1" parent="lIUbMRTAkBy0YjpKBGl3-1" vertex="1">
          <mxGeometry x="418" y="1341" width="200" height="62.5" as="geometry" />
        </mxCell>
        <mxCell id="lIUbMRTAkBy0YjpKBGl3-20" style="edgeStyle=orthogonalEdgeStyle;rounded=0;orthogonalLoop=1;jettySize=auto;html=1;exitX=0;exitY=0.5;exitDx=0;exitDy=0;entryX=0;entryY=0.5;entryDx=0;entryDy=0;" parent="lIUbMRTAkBy0YjpKBGl3-1" source="lIUbMRTAkBy0YjpKBGl3-21" target="lIUbMRTAkBy0YjpKBGl3-3" edge="1">
          <mxGeometry relative="1" as="geometry">
            <Array as="points">
              <mxPoint x="60" y="1210" />
              <mxPoint x="60" y="142" />
            </Array>
          </mxGeometry>
        </mxCell>
        <mxCell id="lIUbMRTAkBy0YjpKBGl3-21" value="Select Cancel&#xa;button" style="whiteSpace=wrap;rounded=1;fontSize=19;fillColor=#fff2cc;strokeColor=#d6b656;fontStyle=1" parent="lIUbMRTAkBy0YjpKBGl3-1" vertex="1">
          <mxGeometry x="106" y="1179" width="200" height="62.5" as="geometry" />
        </mxCell>
        <mxCell id="lIUbMRTAkBy0YjpKBGl3-22" style="edgeStyle=orthogonalEdgeStyle;rounded=0;orthogonalLoop=1;jettySize=auto;html=1;exitX=0.5;exitY=1;exitDx=0;exitDy=0;" parent="lIUbMRTAkBy0YjpKBGl3-1" source="lIUbMRTAkBy0YjpKBGl3-24" edge="1">
          <mxGeometry relative="1" as="geometry">
            <mxPoint x="206" y="862" as="targetPoint" />
          </mxGeometry>
        </mxCell>
        <mxCell id="lIUbMRTAkBy0YjpKBGl3-23" style="edgeStyle=orthogonalEdgeStyle;rounded=0;orthogonalLoop=1;jettySize=auto;html=1;exitX=1;exitY=0.5;exitDx=0;exitDy=0;" parent="lIUbMRTAkBy0YjpKBGl3-1" source="lIUbMRTAkBy0YjpKBGl3-24" target="lIUbMRTAkBy0YjpKBGl3-27" edge="1">
          <mxGeometry relative="1" as="geometry" />
        </mxCell>
        <mxCell id="lIUbMRTAkBy0YjpKBGl3-24" value="Add Device?" style="rhombus;fontSize=19;fillColor=#dae8fc;strokeColor=#6c8ebf;fontStyle=1" parent="lIUbMRTAkBy0YjpKBGl3-1" vertex="1">
          <mxGeometry x="108.50999999999999" y="512" width="195" height="140" as="geometry" />
        </mxCell>
        <mxCell id="lIUbMRTAkBy0YjpKBGl3-25" value="No" style="text;html=1;align=center;verticalAlign=middle;whiteSpace=wrap;rounded=0;fontSize=19;fontStyle=1" parent="lIUbMRTAkBy0YjpKBGl3-1" vertex="1">
          <mxGeometry x="146" y="642" width="60" height="30" as="geometry" />
        </mxCell>
        <mxCell id="lIUbMRTAkBy0YjpKBGl3-26" value="Yes" style="text;html=1;align=center;verticalAlign=middle;whiteSpace=wrap;rounded=0;fontSize=19;fontStyle=1" parent="lIUbMRTAkBy0YjpKBGl3-1" vertex="1">
          <mxGeometry x="300" y="542" width="60" height="30" as="geometry" />
        </mxCell>
        <mxCell id="lIUbMRTAkBy0YjpKBGl3-27" value="Select Add Device&#xa;button" style="whiteSpace=wrap;rounded=1;fontSize=19;fillColor=#fff2cc;strokeColor=#d6b656;fontStyle=1" parent="lIUbMRTAkBy0YjpKBGl3-1" vertex="1">
          <mxGeometry x="380" y="550.75" width="238" height="62.5" as="geometry" />
        </mxCell>
        <mxCell id="lIUbMRTAkBy0YjpKBGl3-28" value="Enter new Device&#xa;details" style="whiteSpace=wrap;rounded=1;fontSize=19;fillColor=#fff2cc;strokeColor=#d6b656;fontStyle=1" parent="lIUbMRTAkBy0YjpKBGl3-1" vertex="1">
          <mxGeometry x="380" y="681" width="238" height="62.5" as="geometry" />
        </mxCell>
        <mxCell id="FXzMKU6uI6NQ77ImAHeM-2" style="edgeStyle=orthogonalEdgeStyle;rounded=0;orthogonalLoop=1;jettySize=auto;html=1;exitX=1;exitY=0.5;exitDx=0;exitDy=0;entryX=0;entryY=0.5;entryDx=0;entryDy=0;" edge="1" parent="lIUbMRTAkBy0YjpKBGl3-1" source="FXzMKU6uI6NQ77ImAHeM-1" target="lIUbMRTAkBy0YjpKBGl3-18">
          <mxGeometry relative="1" as="geometry" />
        </mxCell>
        <mxCell id="FXzMKU6uI6NQ77ImAHeM-1" value="Delete Device?" style="rhombus;fontSize=19;fillColor=#dae8fc;strokeColor=#6c8ebf;fontStyle=1" vertex="1" parent="lIUbMRTAkBy0YjpKBGl3-1">
          <mxGeometry x="108.50999999999999" y="861.25" width="195" height="140" as="geometry" />
        </mxCell>
        <mxCell id="FXzMKU6uI6NQ77ImAHeM-3" value="Yes" style="text;html=1;align=center;verticalAlign=middle;whiteSpace=wrap;rounded=0;fontSize=19;fontStyle=1" vertex="1" parent="lIUbMRTAkBy0YjpKBGl3-1">
          <mxGeometry x="290" y="900" width="60" height="30" as="geometry" />
        </mxCell>
        <mxCell id="FXzMKU6uI6NQ77ImAHeM-4" value="No" style="text;html=1;align=center;verticalAlign=middle;whiteSpace=wrap;rounded=0;fontSize=19;fontStyle=1" vertex="1" parent="lIUbMRTAkBy0YjpKBGl3-1">
          <mxGeometry x="146" y="992" width="60" height="30" as="geometry" />
        </mxCell>
        <mxCell id="FXzMKU6uI6NQ77ImAHeM-5" value="" style="ellipse;html=1;shape=endState;fillColor=strokeColor;fontStyle=1" vertex="1" parent="lIUbMRTAkBy0YjpKBGl3-1">
          <mxGeometry x="192.01" y="1072" width="30" height="32" as="geometry" />
        </mxCell>
        <mxCell id="FXzMKU6uI6NQ77ImAHeM-6" style="edgeStyle=orthogonalEdgeStyle;rounded=0;orthogonalLoop=1;jettySize=auto;html=1;entryX=0.5;entryY=0;entryDx=0;entryDy=0;" edge="1" parent="lIUbMRTAkBy0YjpKBGl3-1" target="FXzMKU6uI6NQ77ImAHeM-5">
          <mxGeometry relative="1" as="geometry">
            <mxPoint x="207" y="1001" as="sourcePoint" />
            <Array as="points">
              <mxPoint x="207" y="1062" />
            </Array>
          </mxGeometry>
        </mxCell>
        <mxCell id="lIUbMRTAkBy0YjpKBGl3-29" value="EDMS App" style="swimlane;whiteSpace=wrap;fontSize=16;fontStyle=1" parent="1" vertex="1">
          <mxGeometry x="360" y="128" width="1230" height="1742" as="geometry" />
        </mxCell>
        <mxCell id="lIUbMRTAkBy0YjpKBGl3-30" style="edgeStyle=orthogonalEdgeStyle;rounded=0;orthogonalLoop=1;jettySize=auto;html=1;exitX=1;exitY=0.5;exitDx=0;exitDy=0;entryX=0.75;entryY=0;entryDx=0;entryDy=0;" parent="lIUbMRTAkBy0YjpKBGl3-29" edge="1">
          <mxGeometry relative="1" as="geometry">
            <mxPoint x="212.75" y="696" as="sourcePoint" />
          </mxGeometry>
        </mxCell>
        <mxCell id="lIUbMRTAkBy0YjpKBGl3-31" style="edgeStyle=orthogonalEdgeStyle;rounded=0;orthogonalLoop=1;jettySize=auto;html=1;exitX=0;exitY=0.5;exitDx=0;exitDy=0;entryX=0.25;entryY=0;entryDx=0;entryDy=0;" parent="lIUbMRTAkBy0YjpKBGl3-29" edge="1">
          <mxGeometry relative="1" as="geometry">
            <mxPoint x="76.75" y="696" as="sourcePoint" />
          </mxGeometry>
        </mxCell>
        <mxCell id="lIUbMRTAkBy0YjpKBGl3-32" style="edgeStyle=orthogonalEdgeStyle;rounded=0;orthogonalLoop=1;jettySize=auto;html=1;entryX=0.5;entryY=0;entryDx=0;entryDy=0;exitX=1;exitY=0.5;exitDx=0;exitDy=0;fontSize=16;fontStyle=1" parent="lIUbMRTAkBy0YjpKBGl3-29" source="lIUbMRTAkBy0YjpKBGl3-34" target="lIUbMRTAkBy0YjpKBGl3-48" edge="1">
          <mxGeometry relative="1" as="geometry">
            <mxPoint x="746" y="619" as="targetPoint" />
            <mxPoint x="531.5" y="352" as="sourcePoint" />
          </mxGeometry>
        </mxCell>
        <mxCell id="lIUbMRTAkBy0YjpKBGl3-33" value="Display the Edit Device&#xa;modal" style="whiteSpace=wrap;rounded=1;fontSize=19;fillColor=#fff2cc;strokeColor=#d6b656;fontStyle=1" parent="lIUbMRTAkBy0YjpKBGl3-29" vertex="1">
          <mxGeometry x="663" y="110" width="271" height="62.5" as="geometry" />
        </mxCell>
        <mxCell id="lIUbMRTAkBy0YjpKBGl3-34" value="Valid Device&#xa;details?" style="rhombus;fontSize=19;fillColor=#dae8fc;strokeColor=#6c8ebf;fontStyle=1" parent="lIUbMRTAkBy0YjpKBGl3-29" vertex="1">
          <mxGeometry x="701" y="429" width="195" height="140" as="geometry" />
        </mxCell>
        <mxCell id="lIUbMRTAkBy0YjpKBGl3-35" style="edgeStyle=orthogonalEdgeStyle;rounded=0;orthogonalLoop=1;jettySize=auto;html=1;exitX=0;exitY=0.5;exitDx=0;exitDy=0;fontSize=16;fontStyle=1" parent="lIUbMRTAkBy0YjpKBGl3-29" source="lIUbMRTAkBy0YjpKBGl3-34" target="lIUbMRTAkBy0YjpKBGl3-38" edge="1">
          <mxGeometry relative="1" as="geometry">
            <mxPoint x="341" y="572" as="targetPoint" />
            <mxPoint x="421" y="582" as="sourcePoint" />
          </mxGeometry>
        </mxCell>
        <mxCell id="lIUbMRTAkBy0YjpKBGl3-36" value="No" style="text;html=1;strokeColor=none;fillColor=none;align=center;verticalAlign=middle;whiteSpace=wrap;rounded=0;fontSize=19;fontStyle=1" parent="lIUbMRTAkBy0YjpKBGl3-29" vertex="1">
          <mxGeometry x="641" y="462" width="60" height="30" as="geometry" />
        </mxCell>
        <mxCell id="lIUbMRTAkBy0YjpKBGl3-37" style="edgeStyle=orthogonalEdgeStyle;rounded=0;orthogonalLoop=1;jettySize=auto;html=1;exitX=0.5;exitY=1;exitDx=0;exitDy=0;entryX=0.5;entryY=0;entryDx=0;entryDy=0;" parent="lIUbMRTAkBy0YjpKBGl3-29" edge="1">
          <mxGeometry relative="1" as="geometry">
            <mxPoint x="500" y="681.5" as="sourcePoint" />
          </mxGeometry>
        </mxCell>
        <mxCell id="lIUbMRTAkBy0YjpKBGl3-38" value="Display error message" style="whiteSpace=wrap;rounded=1;fontSize=19;fillColor=#fff2cc;strokeColor=#d6b656;fontStyle=1" parent="lIUbMRTAkBy0YjpKBGl3-29" vertex="1">
          <mxGeometry x="328" y="322" width="200" height="62.5" as="geometry" />
        </mxCell>
        <mxCell id="lIUbMRTAkBy0YjpKBGl3-39" style="edgeStyle=orthogonalEdgeStyle;rounded=0;orthogonalLoop=1;jettySize=auto;html=1;exitX=0.5;exitY=1;exitDx=0;exitDy=0;entryX=0.5;entryY=0;entryDx=0;entryDy=0;" parent="lIUbMRTAkBy0YjpKBGl3-29" source="lIUbMRTAkBy0YjpKBGl3-40" target="lIUbMRTAkBy0YjpKBGl3-44" edge="1">
          <mxGeometry relative="1" as="geometry" />
        </mxCell>
        <mxCell id="lIUbMRTAkBy0YjpKBGl3-40" value="Delete Device from&#xa;database" style="whiteSpace=wrap;rounded=1;fontSize=19;fillColor=#fff2cc;strokeColor=#d6b656;fontStyle=1" parent="lIUbMRTAkBy0YjpKBGl3-29" vertex="1">
          <mxGeometry x="286" y="1176.5" width="200" height="62.5" as="geometry" />
        </mxCell>
        <mxCell id="lIUbMRTAkBy0YjpKBGl3-41" value="Display delete Device&#xa;modal" style="whiteSpace=wrap;rounded=1;fontSize=19;fillColor=#fff2cc;strokeColor=#d6b656;fontStyle=1" parent="lIUbMRTAkBy0YjpKBGl3-29" vertex="1">
          <mxGeometry x="286" y="900" width="200" height="62.5" as="geometry" />
        </mxCell>
        <mxCell id="lIUbMRTAkBy0YjpKBGl3-42" style="edgeStyle=orthogonalEdgeStyle;rounded=0;orthogonalLoop=1;jettySize=auto;html=1;exitX=0.5;exitY=1;exitDx=0;exitDy=0;entryX=0.5;entryY=0;entryDx=0;entryDy=0;fontStyle=1" parent="lIUbMRTAkBy0YjpKBGl3-29" source="lIUbMRTAkBy0YjpKBGl3-46" target="lIUbMRTAkBy0YjpKBGl3-45" edge="1">
          <mxGeometry relative="1" as="geometry">
            <mxPoint x="368.27941176470586" y="1552" as="targetPoint" />
            <mxPoint x="386" y="1522" as="sourcePoint" />
          </mxGeometry>
        </mxCell>
        <mxCell id="lIUbMRTAkBy0YjpKBGl3-43" style="edgeStyle=orthogonalEdgeStyle;rounded=0;orthogonalLoop=1;jettySize=auto;html=1;exitX=0.5;exitY=1;exitDx=0;exitDy=0;" parent="lIUbMRTAkBy0YjpKBGl3-29" source="lIUbMRTAkBy0YjpKBGl3-44" target="lIUbMRTAkBy0YjpKBGl3-46" edge="1">
          <mxGeometry relative="1" as="geometry" />
        </mxCell>
        <mxCell id="lIUbMRTAkBy0YjpKBGl3-44" value="Display success&#xa;message" style="whiteSpace=wrap;rounded=1;fontSize=19;fillColor=#fff2cc;strokeColor=#d6b656;fontStyle=1" parent="lIUbMRTAkBy0YjpKBGl3-29" vertex="1">
          <mxGeometry x="286" y="1329.5" width="200" height="62.5" as="geometry" />
        </mxCell>
        <mxCell id="lIUbMRTAkBy0YjpKBGl3-45" value="" style="ellipse;html=1;shape=endState;fillColor=strokeColor;fontStyle=1" parent="lIUbMRTAkBy0YjpKBGl3-29" vertex="1">
          <mxGeometry x="371" y="1624" width="30" height="32" as="geometry" />
        </mxCell>
        <mxCell id="lIUbMRTAkBy0YjpKBGl3-46" value="DisplayÂ Dashboard" style="whiteSpace=wrap;rounded=1;fontSize=19;fillColor=#fff2cc;strokeColor=#d6b656;fontStyle=1" parent="lIUbMRTAkBy0YjpKBGl3-29" vertex="1">
          <mxGeometry x="286" y="1479.5" width="200" height="62.5" as="geometry" />
        </mxCell>
        <mxCell id="lIUbMRTAkBy0YjpKBGl3-47" style="edgeStyle=orthogonalEdgeStyle;rounded=0;orthogonalLoop=1;jettySize=auto;html=1;exitX=0.5;exitY=1;exitDx=0;exitDy=0;entryX=0.5;entryY=0;entryDx=0;entryDy=0;" parent="lIUbMRTAkBy0YjpKBGl3-29" source="lIUbMRTAkBy0YjpKBGl3-48" target="lIUbMRTAkBy0YjpKBGl3-51" edge="1">
          <mxGeometry relative="1" as="geometry" />
        </mxCell>
        <mxCell id="lIUbMRTAkBy0YjpKBGl3-48" value="Update Device&#xa;in database" style="whiteSpace=wrap;rounded=1;fontSize=19;fillColor=#fff2cc;strokeColor=#d6b656;fontStyle=1" parent="lIUbMRTAkBy0YjpKBGl3-29" vertex="1">
          <mxGeometry x="934" y="619" width="200" height="62.5" as="geometry" />
        </mxCell>
        <mxCell id="lIUbMRTAkBy0YjpKBGl3-49" style="edgeStyle=orthogonalEdgeStyle;rounded=0;orthogonalLoop=1;jettySize=auto;html=1;exitX=0.5;exitY=1;exitDx=0;exitDy=0;entryX=0.5;entryY=0;entryDx=0;entryDy=0;fontStyle=1" parent="lIUbMRTAkBy0YjpKBGl3-29" source="lIUbMRTAkBy0YjpKBGl3-53" target="lIUbMRTAkBy0YjpKBGl3-52" edge="1">
          <mxGeometry relative="1" as="geometry">
            <mxPoint x="728.2794117647059" y="1022" as="targetPoint" />
            <mxPoint x="746" y="992" as="sourcePoint" />
          </mxGeometry>
        </mxCell>
        <mxCell id="lIUbMRTAkBy0YjpKBGl3-50" style="edgeStyle=orthogonalEdgeStyle;rounded=0;orthogonalLoop=1;jettySize=auto;html=1;exitX=0.5;exitY=1;exitDx=0;exitDy=0;" parent="lIUbMRTAkBy0YjpKBGl3-29" source="lIUbMRTAkBy0YjpKBGl3-51" target="lIUbMRTAkBy0YjpKBGl3-53" edge="1">
          <mxGeometry relative="1" as="geometry" />
        </mxCell>
        <mxCell id="lIUbMRTAkBy0YjpKBGl3-51" value="Display success&#xa;message" style="whiteSpace=wrap;rounded=1;fontSize=19;fillColor=#fff2cc;strokeColor=#d6b656;fontStyle=1" parent="lIUbMRTAkBy0YjpKBGl3-29" vertex="1">
          <mxGeometry x="934" y="772" width="200" height="62.5" as="geometry" />
        </mxCell>
        <mxCell id="lIUbMRTAkBy0YjpKBGl3-52" value="" style="ellipse;html=1;shape=endState;fillColor=strokeColor;fontStyle=1" parent="lIUbMRTAkBy0YjpKBGl3-29" vertex="1">
          <mxGeometry x="1019" y="1045.5" width="30" height="32" as="geometry" />
        </mxCell>
        <mxCell id="lIUbMRTAkBy0YjpKBGl3-53" value="DisplayÂ Dashboard" style="whiteSpace=wrap;rounded=1;fontSize=19;fillColor=#fff2cc;strokeColor=#d6b656;fontStyle=1" parent="lIUbMRTAkBy0YjpKBGl3-29" vertex="1">
          <mxGeometry x="934" y="922" width="200" height="62.5" as="geometry" />
        </mxCell>
        <mxCell id="lIUbMRTAkBy0YjpKBGl3-54" value="Yes" style="text;html=1;strokeColor=none;fillColor=none;align=center;verticalAlign=middle;whiteSpace=wrap;rounded=0;fontSize=19;fontStyle=1" parent="lIUbMRTAkBy0YjpKBGl3-29" vertex="1">
          <mxGeometry x="888" y="462" width="60" height="30" as="geometry" />
        </mxCell>
        <mxCell id="lIUbMRTAkBy0YjpKBGl3-55" value="Display the Add Device&#xa;modal" style="whiteSpace=wrap;rounded=1;fontSize=19;fillColor=#fff2cc;strokeColor=#d6b656;fontStyle=1" parent="lIUbMRTAkBy0YjpKBGl3-29" vertex="1">
          <mxGeometry x="120" y="550" width="200" height="62.5" as="geometry" />
        </mxCell>
        <mxCell id="lIUbMRTAkBy0YjpKBGl3-56" style="edgeStyle=orthogonalEdgeStyle;rounded=0;orthogonalLoop=1;jettySize=auto;html=1;exitX=0;exitY=0.5;exitDx=0;exitDy=0;entryX=1;entryY=0.5;entryDx=0;entryDy=0;" parent="lIUbMRTAkBy0YjpKBGl3-29" source="lIUbMRTAkBy0YjpKBGl3-58" target="lIUbMRTAkBy0YjpKBGl3-68" edge="1">
          <mxGeometry relative="1" as="geometry" />
        </mxCell>
        <mxCell id="lIUbMRTAkBy0YjpKBGl3-57" style="edgeStyle=orthogonalEdgeStyle;rounded=0;orthogonalLoop=1;jettySize=auto;html=1;exitX=0.5;exitY=1;exitDx=0;exitDy=0;entryX=0.5;entryY=0;entryDx=0;entryDy=0;" parent="lIUbMRTAkBy0YjpKBGl3-29" source="lIUbMRTAkBy0YjpKBGl3-58" target="lIUbMRTAkBy0YjpKBGl3-61" edge="1">
          <mxGeometry relative="1" as="geometry" />
        </mxCell>
        <mxCell id="lIUbMRTAkBy0YjpKBGl3-58" value="Valid Device&#xa;details?" style="rhombus;fontSize=19;fillColor=#dae8fc;strokeColor=#6c8ebf;fontStyle=1" parent="lIUbMRTAkBy0YjpKBGl3-29" vertex="1">
          <mxGeometry x="620" y="742.5" width="195" height="140" as="geometry" />
        </mxCell>
        <mxCell id="lIUbMRTAkBy0YjpKBGl3-59" value="No" style="text;html=1;strokeColor=none;fillColor=none;align=center;verticalAlign=middle;whiteSpace=wrap;rounded=0;fontSize=19;fontStyle=1" parent="lIUbMRTAkBy0YjpKBGl3-29" vertex="1">
          <mxGeometry x="560" y="773" width="60" height="30" as="geometry" />
        </mxCell>
        <mxCell id="lIUbMRTAkBy0YjpKBGl3-60" style="edgeStyle=orthogonalEdgeStyle;rounded=0;orthogonalLoop=1;jettySize=auto;html=1;exitX=0.5;exitY=1;exitDx=0;exitDy=0;entryX=0.5;entryY=0;entryDx=0;entryDy=0;" parent="lIUbMRTAkBy0YjpKBGl3-29" source="lIUbMRTAkBy0YjpKBGl3-61" target="lIUbMRTAkBy0YjpKBGl3-63" edge="1">
          <mxGeometry relative="1" as="geometry" />
        </mxCell>
        <mxCell id="lIUbMRTAkBy0YjpKBGl3-61" value="Add new Device&#xa;to database" style="whiteSpace=wrap;rounded=1;fontSize=19;fillColor=#fff2cc;strokeColor=#d6b656;fontStyle=1" parent="lIUbMRTAkBy0YjpKBGl3-29" vertex="1">
          <mxGeometry x="617.5" y="973" width="200" height="62.5" as="geometry" />
        </mxCell>
        <mxCell id="lIUbMRTAkBy0YjpKBGl3-62" style="edgeStyle=orthogonalEdgeStyle;rounded=0;orthogonalLoop=1;jettySize=auto;html=1;exitX=0.5;exitY=1;exitDx=0;exitDy=0;entryX=0.5;entryY=0;entryDx=0;entryDy=0;" parent="lIUbMRTAkBy0YjpKBGl3-29" source="lIUbMRTAkBy0YjpKBGl3-63" target="lIUbMRTAkBy0YjpKBGl3-66" edge="1">
          <mxGeometry relative="1" as="geometry" />
        </mxCell>
        <mxCell id="lIUbMRTAkBy0YjpKBGl3-63" value="Display success&#xa;message" style="whiteSpace=wrap;rounded=1;fontSize=19;fillColor=#fff2cc;strokeColor=#d6b656;fontStyle=1" parent="lIUbMRTAkBy0YjpKBGl3-29" vertex="1">
          <mxGeometry x="617.5" y="1126" width="200" height="62.5" as="geometry" />
        </mxCell>
        <mxCell id="lIUbMRTAkBy0YjpKBGl3-64" value="" style="ellipse;html=1;shape=endState;fillColor=strokeColor;fontStyle=1" parent="lIUbMRTAkBy0YjpKBGl3-29" vertex="1">
          <mxGeometry x="702.5" y="1399.5" width="30" height="32" as="geometry" />
        </mxCell>
        <mxCell id="lIUbMRTAkBy0YjpKBGl3-65" style="edgeStyle=orthogonalEdgeStyle;rounded=0;orthogonalLoop=1;jettySize=auto;html=1;exitX=0.5;exitY=1;exitDx=0;exitDy=0;entryX=0.5;entryY=0;entryDx=0;entryDy=0;" parent="lIUbMRTAkBy0YjpKBGl3-29" source="lIUbMRTAkBy0YjpKBGl3-66" target="lIUbMRTAkBy0YjpKBGl3-64" edge="1">
          <mxGeometry relative="1" as="geometry" />
        </mxCell>
        <mxCell id="lIUbMRTAkBy0YjpKBGl3-66" value="DisplayÂ Dashboard" style="whiteSpace=wrap;rounded=1;fontSize=19;fillColor=#fff2cc;strokeColor=#d6b656;fontStyle=1" parent="lIUbMRTAkBy0YjpKBGl3-29" vertex="1">
          <mxGeometry x="617.5" y="1276" width="200" height="62.5" as="geometry" />
        </mxCell>
        <mxCell id="lIUbMRTAkBy0YjpKBGl3-67" value="Yes" style="text;html=1;strokeColor=none;fillColor=none;align=center;verticalAlign=middle;whiteSpace=wrap;rounded=0;fontSize=19;fontStyle=1" parent="lIUbMRTAkBy0YjpKBGl3-29" vertex="1">
          <mxGeometry x="650" y="873" width="60" height="30" as="geometry" />
        </mxCell>
        <mxCell id="lIUbMRTAkBy0YjpKBGl3-68" value="Display error&#xa;message" style="whiteSpace=wrap;rounded=1;fontSize=19;fillColor=#fff2cc;strokeColor=#d6b656;fontStyle=1" parent="lIUbMRTAkBy0YjpKBGl3-29" vertex="1">
          <mxGeometry x="286" y="781.25" width="200" height="62.5" as="geometry" />
        </mxCell>
        <mxCell id="lIUbMRTAkBy0YjpKBGl3-69" value="Manage Devices Process" style="text;html=1;align=center;verticalAlign=middle;whiteSpace=wrap;rounded=0;fontSize=29;fontStyle=1" parent="1" vertex="1">
          <mxGeometry x="-340" y="78" width="360" height="50" as="geometry" />
        </mxCell>
        <mxCell id="lIUbMRTAkBy0YjpKBGl3-70" style="edgeStyle=orthogonalEdgeStyle;rounded=0;orthogonalLoop=1;jettySize=auto;html=1;exitX=0.5;exitY=1;exitDx=0;exitDy=0;entryX=0.5;entryY=0;entryDx=0;entryDy=0;fontStyle=1" parent="1" source="lIUbMRTAkBy0YjpKBGl3-33" target="lIUbMRTAkBy0YjpKBGl3-7" edge="1">
          <mxGeometry relative="1" as="geometry">
            <mxPoint x="290" y="400" as="targetPoint" />
            <Array as="points">
              <mxPoint x="1159" y="330" />
              <mxPoint x="178" y="330" />
            </Array>
          </mxGeometry>
        </mxCell>
        <mxCell id="lIUbMRTAkBy0YjpKBGl3-71" style="edgeStyle=orthogonalEdgeStyle;rounded=0;orthogonalLoop=1;jettySize=auto;html=1;exitX=1;exitY=0.5;exitDx=0;exitDy=0;entryX=0;entryY=0.5;entryDx=0;entryDy=0;fontStyle=1" parent="1" source="lIUbMRTAkBy0YjpKBGl3-9" target="lIUbMRTAkBy0YjpKBGl3-33" edge="1">
          <mxGeometry relative="1" as="geometry" />
        </mxCell>
        <mxCell id="lIUbMRTAkBy0YjpKBGl3-72" style="edgeStyle=orthogonalEdgeStyle;rounded=0;orthogonalLoop=1;jettySize=auto;html=1;exitX=1;exitY=0.5;exitDx=0;exitDy=0;entryX=0;entryY=0.5;entryDx=0;entryDy=0;" parent="1" source="lIUbMRTAkBy0YjpKBGl3-18" target="lIUbMRTAkBy0YjpKBGl3-41" edge="1">
          <mxGeometry relative="1" as="geometry" />
        </mxCell>
        <mxCell id="lIUbMRTAkBy0YjpKBGl3-73" style="edgeStyle=orthogonalEdgeStyle;rounded=0;orthogonalLoop=1;jettySize=auto;html=1;exitX=0.5;exitY=1;exitDx=0;exitDy=0;entryX=0.5;entryY=0;entryDx=0;entryDy=0;" parent="1" source="lIUbMRTAkBy0YjpKBGl3-41" target="lIUbMRTAkBy0YjpKBGl3-13" edge="1">
          <mxGeometry relative="1" as="geometry" />
        </mxCell>
        <mxCell id="lIUbMRTAkBy0YjpKBGl3-74" style="edgeStyle=orthogonalEdgeStyle;rounded=0;orthogonalLoop=1;jettySize=auto;html=1;exitX=1;exitY=0.5;exitDx=0;exitDy=0;" parent="1" source="lIUbMRTAkBy0YjpKBGl3-19" target="lIUbMRTAkBy0YjpKBGl3-40" edge="1">
          <mxGeometry relative="1" as="geometry">
            <Array as="points">
              <mxPoint x="470" y="1500" />
              <mxPoint x="470" y="1220" />
              <mxPoint x="746" y="1220" />
            </Array>
          </mxGeometry>
        </mxCell>
        <mxCell id="lIUbMRTAkBy0YjpKBGl3-75" style="edgeStyle=orthogonalEdgeStyle;rounded=0;orthogonalLoop=1;jettySize=auto;html=1;exitX=0;exitY=0.5;exitDx=0;exitDy=0;entryX=0.5;entryY=1;entryDx=0;entryDy=0;" parent="1" source="lIUbMRTAkBy0YjpKBGl3-38" target="lIUbMRTAkBy0YjpKBGl3-7" edge="1">
          <mxGeometry relative="1" as="geometry" />
        </mxCell>
        <mxCell id="lIUbMRTAkBy0YjpKBGl3-76" style="edgeStyle=orthogonalEdgeStyle;rounded=0;orthogonalLoop=1;jettySize=auto;html=1;exitX=1;exitY=0.5;exitDx=0;exitDy=0;entryX=0;entryY=0.5;entryDx=0;entryDy=0;" parent="1" source="lIUbMRTAkBy0YjpKBGl3-27" target="lIUbMRTAkBy0YjpKBGl3-55" edge="1">
          <mxGeometry relative="1" as="geometry" />
        </mxCell>
        <mxCell id="lIUbMRTAkBy0YjpKBGl3-77" style="edgeStyle=orthogonalEdgeStyle;rounded=0;orthogonalLoop=1;jettySize=auto;html=1;exitX=0.5;exitY=1;exitDx=0;exitDy=0;entryX=0.5;entryY=0;entryDx=0;entryDy=0;" parent="1" source="lIUbMRTAkBy0YjpKBGl3-55" target="lIUbMRTAkBy0YjpKBGl3-28" edge="1">
          <mxGeometry relative="1" as="geometry" />
        </mxCell>
        <mxCell id="lIUbMRTAkBy0YjpKBGl3-78" style="edgeStyle=orthogonalEdgeStyle;rounded=0;orthogonalLoop=1;jettySize=auto;html=1;exitX=1;exitY=0.5;exitDx=0;exitDy=0;entryX=0.5;entryY=0;entryDx=0;entryDy=0;" parent="1" source="lIUbMRTAkBy0YjpKBGl3-28" target="lIUbMRTAkBy0YjpKBGl3-58" edge="1">
          <mxGeometry relative="1" as="geometry" />
        </mxCell>
        <mxCell id="lIUbMRTAkBy0YjpKBGl3-79" style="edgeStyle=orthogonalEdgeStyle;rounded=0;orthogonalLoop=1;jettySize=auto;html=1;exitX=0;exitY=0.5;exitDx=0;exitDy=0;entryX=0.5;entryY=1;entryDx=0;entryDy=0;" parent="1" source="lIUbMRTAkBy0YjpKBGl3-68" target="lIUbMRTAkBy0YjpKBGl3-28" edge="1">
          <mxGeometry relative="1" as="geometry" />
        </mxCell>
        <mxCell id="lIUbMRTAkBy0YjpKBGl3-80" style="edgeStyle=orthogonalEdgeStyle;rounded=0;orthogonalLoop=1;jettySize=auto;html=1;exitX=1;exitY=0.5;exitDx=0;exitDy=0;entryX=0.5;entryY=0;entryDx=0;entryDy=0;" parent="1" source="lIUbMRTAkBy0YjpKBGl3-7" target="lIUbMRTAkBy0YjpKBGl3-34" edge="1">
          <mxGeometry relative="1" as="geometry" />
        </mxCell>
      </root>
    </mxGraphModel>
  </diagram>
  <diagram id="IObe9vUOl9sqenP7rIwa" name="search, sort, filter devices">
    <mxGraphModel dx="3292" dy="1434" grid="1" gridSize="10" guides="1" tooltips="1" connect="1" arrows="1" fold="1" page="1" pageScale="1" pageWidth="850" pageHeight="1100" math="0" shadow="0">
      <root>
        <mxCell id="0" />
        <mxCell id="1" parent="0" />
        <mxCell id="aK-g2HT-L3vT9YYnwIVH-1" value="EDMS User" style="swimlane;whiteSpace=wrap;fontSize=16;fontStyle=1" parent="1" vertex="1">
          <mxGeometry x="-340" y="128" width="760" height="1742" as="geometry" />
        </mxCell>
        <mxCell id="aK-g2HT-L3vT9YYnwIVH-2" style="edgeStyle=orthogonalEdgeStyle;rounded=0;orthogonalLoop=1;jettySize=auto;html=1;exitX=0.5;exitY=1;exitDx=0;exitDy=0;entryX=0.5;entryY=0;entryDx=0;entryDy=0;fontStyle=1" parent="aK-g2HT-L3vT9YYnwIVH-1" source="aK-g2HT-L3vT9YYnwIVH-3" target="aK-g2HT-L3vT9YYnwIVH-5" edge="1">
          <mxGeometry relative="1" as="geometry" />
        </mxCell>
        <mxCell id="aK-g2HT-L3vT9YYnwIVH-3" value="Navigate toÂ &#xa;Dashboard" style="rounded=1;fontSize=19;fillColor=#fff2cc;strokeColor=#d6b656;fontStyle=1" parent="aK-g2HT-L3vT9YYnwIVH-1" vertex="1">
          <mxGeometry x="106.01" y="110" width="200" height="62.5" as="geometry" />
        </mxCell>
        <mxCell id="aK-g2HT-L3vT9YYnwIVH-4" style="edgeStyle=orthogonalEdgeStyle;rounded=0;orthogonalLoop=1;jettySize=auto;html=1;exitX=1;exitY=0.5;exitDx=0;exitDy=0;entryX=0;entryY=0.5;entryDx=0;entryDy=0;fontStyle=1" parent="aK-g2HT-L3vT9YYnwIVH-1" source="aK-g2HT-L3vT9YYnwIVH-5" target="aK-g2HT-L3vT9YYnwIVH-9" edge="1">
          <mxGeometry relative="1" as="geometry" />
        </mxCell>
        <mxCell id="aK-g2HT-L3vT9YYnwIVH-5" value="Search Devices?" style="rhombus;fontSize=19;fillColor=#dae8fc;strokeColor=#6c8ebf;fontStyle=1" parent="aK-g2HT-L3vT9YYnwIVH-1" vertex="1">
          <mxGeometry x="108.50999999999999" y="242" width="195" height="140" as="geometry" />
        </mxCell>
        <mxCell id="aK-g2HT-L3vT9YYnwIVH-6" value="Yes" style="text;html=1;align=center;verticalAlign=middle;whiteSpace=wrap;rounded=0;fontSize=19;fontStyle=1" parent="aK-g2HT-L3vT9YYnwIVH-1" vertex="1">
          <mxGeometry x="290" y="281" width="60" height="30" as="geometry" />
        </mxCell>
        <mxCell id="aK-g2HT-L3vT9YYnwIVH-7" value="Select search button" style="whiteSpace=wrap;rounded=1;fontSize=19;fillColor=#fff2cc;strokeColor=#d6b656;fontStyle=1" parent="aK-g2HT-L3vT9YYnwIVH-1" vertex="1">
          <mxGeometry x="418" y="402.38" width="200" height="62.5" as="geometry" />
        </mxCell>
        <mxCell id="aK-g2HT-L3vT9YYnwIVH-8" value="No" style="text;html=1;align=center;verticalAlign=middle;whiteSpace=wrap;rounded=0;fontSize=19;fontStyle=1" parent="aK-g2HT-L3vT9YYnwIVH-1" vertex="1">
          <mxGeometry x="146" y="382" width="60" height="30" as="geometry" />
        </mxCell>
        <mxCell id="aK-g2HT-L3vT9YYnwIVH-87" style="edgeStyle=orthogonalEdgeStyle;rounded=0;orthogonalLoop=1;jettySize=auto;html=1;exitX=0.5;exitY=1;exitDx=0;exitDy=0;entryX=0.5;entryY=0;entryDx=0;entryDy=0;" parent="aK-g2HT-L3vT9YYnwIVH-1" source="aK-g2HT-L3vT9YYnwIVH-9" target="aK-g2HT-L3vT9YYnwIVH-7" edge="1">
          <mxGeometry relative="1" as="geometry" />
        </mxCell>
        <mxCell id="aK-g2HT-L3vT9YYnwIVH-9" value="Enter Search query&#xa;in search box" style="whiteSpace=wrap;rounded=1;fontSize=19;fillColor=#fff2cc;strokeColor=#d6b656;fontStyle=1" parent="aK-g2HT-L3vT9YYnwIVH-1" vertex="1">
          <mxGeometry x="418" y="281" width="200" height="62.5" as="geometry" />
        </mxCell>
        <mxCell id="aK-g2HT-L3vT9YYnwIVH-10" style="edgeStyle=orthogonalEdgeStyle;rounded=0;orthogonalLoop=1;jettySize=auto;html=1;exitX=0.5;exitY=1;exitDx=0;exitDy=0;entryX=0.5;entryY=0;entryDx=0;entryDy=0;fontStyle=1" parent="aK-g2HT-L3vT9YYnwIVH-1" source="aK-g2HT-L3vT9YYnwIVH-5" target="aK-g2HT-L3vT9YYnwIVH-24" edge="1">
          <mxGeometry relative="1" as="geometry" />
        </mxCell>
        <mxCell id="aK-g2HT-L3vT9YYnwIVH-16" style="edgeStyle=orthogonalEdgeStyle;rounded=0;orthogonalLoop=1;jettySize=auto;html=1;exitX=0.5;exitY=1;exitDx=0;exitDy=0;entryX=0.5;entryY=0;entryDx=0;entryDy=0;fontStyle=1" parent="aK-g2HT-L3vT9YYnwIVH-1" source="aK-g2HT-L3vT9YYnwIVH-17" target="aK-g2HT-L3vT9YYnwIVH-3" edge="1">
          <mxGeometry relative="1" as="geometry" />
        </mxCell>
        <mxCell id="aK-g2HT-L3vT9YYnwIVH-17" value="" style="ellipse;fillColor=strokeColor;html=1;fontStyle=1" parent="aK-g2HT-L3vT9YYnwIVH-1" vertex="1">
          <mxGeometry x="191" y="32" width="30" height="30" as="geometry" />
        </mxCell>
        <mxCell id="aK-g2HT-L3vT9YYnwIVH-18" value="Select a Filter fromÂ &#xa;aÂ dropdown" style="rounded=1;fontSize=19;fillColor=#fff2cc;strokeColor=#d6b656;fontStyle=1" parent="aK-g2HT-L3vT9YYnwIVH-1" vertex="1">
          <mxGeometry x="418" y="961" width="200" height="62.5" as="geometry" />
        </mxCell>
        <mxCell id="aK-g2HT-L3vT9YYnwIVH-22" style="edgeStyle=orthogonalEdgeStyle;rounded=0;orthogonalLoop=1;jettySize=auto;html=1;exitX=0.5;exitY=1;exitDx=0;exitDy=0;entryX=0.5;entryY=0;entryDx=0;entryDy=0;" parent="aK-g2HT-L3vT9YYnwIVH-1" source="aK-g2HT-L3vT9YYnwIVH-24" edge="1" target="aK-g2HT-L3vT9YYnwIVH-30">
          <mxGeometry relative="1" as="geometry">
            <mxPoint x="206" y="862" as="targetPoint" />
          </mxGeometry>
        </mxCell>
        <mxCell id="aK-g2HT-L3vT9YYnwIVH-23" style="edgeStyle=orthogonalEdgeStyle;rounded=0;orthogonalLoop=1;jettySize=auto;html=1;exitX=1;exitY=0.5;exitDx=0;exitDy=0;" parent="aK-g2HT-L3vT9YYnwIVH-1" source="aK-g2HT-L3vT9YYnwIVH-24" target="aK-g2HT-L3vT9YYnwIVH-27" edge="1">
          <mxGeometry relative="1" as="geometry" />
        </mxCell>
        <mxCell id="aK-g2HT-L3vT9YYnwIVH-24" value="Sort Devices?" style="rhombus;fontSize=19;fillColor=#dae8fc;strokeColor=#6c8ebf;fontStyle=1" parent="aK-g2HT-L3vT9YYnwIVH-1" vertex="1">
          <mxGeometry x="108.50999999999999" y="512" width="195" height="140" as="geometry" />
        </mxCell>
        <mxCell id="aK-g2HT-L3vT9YYnwIVH-25" value="No" style="text;html=1;align=center;verticalAlign=middle;whiteSpace=wrap;rounded=0;fontSize=19;fontStyle=1" parent="aK-g2HT-L3vT9YYnwIVH-1" vertex="1">
          <mxGeometry x="146" y="642" width="60" height="30" as="geometry" />
        </mxCell>
        <mxCell id="aK-g2HT-L3vT9YYnwIVH-26" value="Yes" style="text;html=1;align=center;verticalAlign=middle;whiteSpace=wrap;rounded=0;fontSize=19;fontStyle=1" parent="aK-g2HT-L3vT9YYnwIVH-1" vertex="1">
          <mxGeometry x="290" y="550.75" width="60" height="30" as="geometry" />
        </mxCell>
        <mxCell id="aK-g2HT-L3vT9YYnwIVH-27" value="Select Table column&#xa;header" style="whiteSpace=wrap;rounded=1;fontSize=19;fillColor=#fff2cc;strokeColor=#d6b656;fontStyle=1" parent="aK-g2HT-L3vT9YYnwIVH-1" vertex="1">
          <mxGeometry x="418" y="550.75" width="200" height="62.5" as="geometry" />
        </mxCell>
        <mxCell id="aK-g2HT-L3vT9YYnwIVH-29" style="edgeStyle=orthogonalEdgeStyle;rounded=0;orthogonalLoop=1;jettySize=auto;html=1;exitX=1;exitY=0.5;exitDx=0;exitDy=0;entryX=0;entryY=0.5;entryDx=0;entryDy=0;" parent="aK-g2HT-L3vT9YYnwIVH-1" source="aK-g2HT-L3vT9YYnwIVH-30" target="aK-g2HT-L3vT9YYnwIVH-18" edge="1">
          <mxGeometry relative="1" as="geometry" />
        </mxCell>
        <mxCell id="dj5l02gitvoQIKbpYGQg-22" style="edgeStyle=orthogonalEdgeStyle;rounded=0;orthogonalLoop=1;jettySize=auto;html=1;exitX=0.5;exitY=1;exitDx=0;exitDy=0;entryX=0.5;entryY=0;entryDx=0;entryDy=0;" edge="1" parent="aK-g2HT-L3vT9YYnwIVH-1" source="aK-g2HT-L3vT9YYnwIVH-30" target="dj5l02gitvoQIKbpYGQg-12">
          <mxGeometry relative="1" as="geometry" />
        </mxCell>
        <mxCell id="aK-g2HT-L3vT9YYnwIVH-30" value="Filter Devices?" style="rhombus;fontSize=19;fillColor=#dae8fc;strokeColor=#6c8ebf;fontStyle=1" parent="aK-g2HT-L3vT9YYnwIVH-1" vertex="1">
          <mxGeometry x="108.50999999999999" y="922.25" width="195" height="140" as="geometry" />
        </mxCell>
        <mxCell id="aK-g2HT-L3vT9YYnwIVH-31" value="Yes" style="text;html=1;align=center;verticalAlign=middle;whiteSpace=wrap;rounded=0;fontSize=19;fontStyle=1" parent="aK-g2HT-L3vT9YYnwIVH-1" vertex="1">
          <mxGeometry x="290" y="961" width="60" height="30" as="geometry" />
        </mxCell>
        <mxCell id="dj5l02gitvoQIKbpYGQg-25" style="edgeStyle=orthogonalEdgeStyle;rounded=0;orthogonalLoop=1;jettySize=auto;html=1;exitX=0.5;exitY=1;exitDx=0;exitDy=0;entryX=0.5;entryY=0;entryDx=0;entryDy=0;" edge="1" parent="aK-g2HT-L3vT9YYnwIVH-1" source="dj5l02gitvoQIKbpYGQg-12" target="dj5l02gitvoQIKbpYGQg-20">
          <mxGeometry relative="1" as="geometry" />
        </mxCell>
        <mxCell id="dj5l02gitvoQIKbpYGQg-12" value="Filter Devices&#xa;using Map?" style="rhombus;fontSize=19;fillColor=#dae8fc;strokeColor=#6c8ebf;fontStyle=1" vertex="1" parent="aK-g2HT-L3vT9YYnwIVH-1">
          <mxGeometry x="108.5" y="1322" width="195" height="140" as="geometry" />
        </mxCell>
        <mxCell id="dj5l02gitvoQIKbpYGQg-23" value="No" style="text;html=1;align=center;verticalAlign=middle;whiteSpace=wrap;rounded=0;fontSize=19;fontStyle=1" vertex="1" parent="aK-g2HT-L3vT9YYnwIVH-1">
          <mxGeometry x="146" y="1052" width="60" height="30" as="geometry" />
        </mxCell>
        <mxCell id="dj5l02gitvoQIKbpYGQg-19" value="No" style="text;html=1;align=center;verticalAlign=middle;whiteSpace=wrap;rounded=0;fontSize=19;fontStyle=1" vertex="1" parent="aK-g2HT-L3vT9YYnwIVH-1">
          <mxGeometry x="150" y="1452" width="60" height="30" as="geometry" />
        </mxCell>
        <mxCell id="dj5l02gitvoQIKbpYGQg-20" value="" style="ellipse;html=1;shape=endState;fillColor=strokeColor;fontStyle=1" vertex="1" parent="aK-g2HT-L3vT9YYnwIVH-1">
          <mxGeometry x="191.01" y="1542" width="30" height="32" as="geometry" />
        </mxCell>
        <mxCell id="dj5l02gitvoQIKbpYGQg-26" value="Select a Building in&#xa;the map" style="rounded=1;fontSize=19;fillColor=#fff2cc;strokeColor=#d6b656;fontStyle=1" vertex="1" parent="aK-g2HT-L3vT9YYnwIVH-1">
          <mxGeometry x="418.01" y="1361" width="200" height="62.5" as="geometry" />
        </mxCell>
        <mxCell id="dj5l02gitvoQIKbpYGQg-27" style="edgeStyle=orthogonalEdgeStyle;rounded=0;orthogonalLoop=1;jettySize=auto;html=1;exitX=1;exitY=0.5;exitDx=0;exitDy=0;entryX=0;entryY=0.5;entryDx=0;entryDy=0;" edge="1" parent="aK-g2HT-L3vT9YYnwIVH-1" target="dj5l02gitvoQIKbpYGQg-26" source="dj5l02gitvoQIKbpYGQg-12">
          <mxGeometry relative="1" as="geometry">
            <mxPoint x="304.01" y="1392" as="sourcePoint" />
          </mxGeometry>
        </mxCell>
        <mxCell id="dj5l02gitvoQIKbpYGQg-28" style="edgeStyle=orthogonalEdgeStyle;rounded=0;orthogonalLoop=1;jettySize=auto;html=1;exitX=0.5;exitY=1;exitDx=0;exitDy=0;entryX=0.5;entryY=0;entryDx=0;entryDy=0;" edge="1" parent="aK-g2HT-L3vT9YYnwIVH-1" source="dj5l02gitvoQIKbpYGQg-29" target="dj5l02gitvoQIKbpYGQg-31">
          <mxGeometry relative="1" as="geometry" />
        </mxCell>
        <mxCell id="dj5l02gitvoQIKbpYGQg-29" value="Filter device list by&#xa;selected building" style="whiteSpace=wrap;rounded=1;fontSize=19;fillColor=#fff2cc;strokeColor=#d6b656;fontStyle=1" vertex="1" parent="aK-g2HT-L3vT9YYnwIVH-1">
          <mxGeometry x="870.01" y="1361" width="200" height="62.5" as="geometry" />
        </mxCell>
        <mxCell id="dj5l02gitvoQIKbpYGQg-30" style="edgeStyle=orthogonalEdgeStyle;rounded=0;orthogonalLoop=1;jettySize=auto;html=1;exitX=0.5;exitY=1;exitDx=0;exitDy=0;entryX=0.5;entryY=0;entryDx=0;entryDy=0;" edge="1" parent="aK-g2HT-L3vT9YYnwIVH-1" source="dj5l02gitvoQIKbpYGQg-31" target="dj5l02gitvoQIKbpYGQg-32">
          <mxGeometry relative="1" as="geometry" />
        </mxCell>
        <mxCell id="dj5l02gitvoQIKbpYGQg-31" value="Display filtered&#xa;device list" style="whiteSpace=wrap;rounded=1;fontSize=19;fillColor=#fff2cc;strokeColor=#d6b656;fontStyle=1" vertex="1" parent="aK-g2HT-L3vT9YYnwIVH-1">
          <mxGeometry x="870.01" y="1502" width="200" height="62.5" as="geometry" />
        </mxCell>
        <mxCell id="dj5l02gitvoQIKbpYGQg-32" value="" style="ellipse;html=1;shape=endState;fillColor=strokeColor;fontStyle=1" vertex="1" parent="aK-g2HT-L3vT9YYnwIVH-1">
          <mxGeometry x="955.01" y="1642" width="30" height="32" as="geometry" />
        </mxCell>
        <mxCell id="dj5l02gitvoQIKbpYGQg-33" style="edgeStyle=orthogonalEdgeStyle;rounded=0;orthogonalLoop=1;jettySize=auto;html=1;exitX=1;exitY=0.5;exitDx=0;exitDy=0;entryX=0;entryY=0.5;entryDx=0;entryDy=0;" edge="1" parent="aK-g2HT-L3vT9YYnwIVH-1" source="dj5l02gitvoQIKbpYGQg-26" target="dj5l02gitvoQIKbpYGQg-29">
          <mxGeometry relative="1" as="geometry" />
        </mxCell>
        <mxCell id="aK-g2HT-L3vT9YYnwIVH-35" value="EDMS App" style="swimlane;whiteSpace=wrap;fontSize=16;fontStyle=1" parent="1" vertex="1">
          <mxGeometry x="420" y="128" width="780" height="1742" as="geometry" />
        </mxCell>
        <mxCell id="aK-g2HT-L3vT9YYnwIVH-36" style="edgeStyle=orthogonalEdgeStyle;rounded=0;orthogonalLoop=1;jettySize=auto;html=1;exitX=1;exitY=0.5;exitDx=0;exitDy=0;entryX=0.75;entryY=0;entryDx=0;entryDy=0;" parent="aK-g2HT-L3vT9YYnwIVH-35" edge="1">
          <mxGeometry relative="1" as="geometry">
            <mxPoint x="212.75" y="696" as="sourcePoint" />
          </mxGeometry>
        </mxCell>
        <mxCell id="aK-g2HT-L3vT9YYnwIVH-37" style="edgeStyle=orthogonalEdgeStyle;rounded=0;orthogonalLoop=1;jettySize=auto;html=1;exitX=0;exitY=0.5;exitDx=0;exitDy=0;entryX=0.25;entryY=0;entryDx=0;entryDy=0;" parent="aK-g2HT-L3vT9YYnwIVH-35" edge="1">
          <mxGeometry relative="1" as="geometry">
            <mxPoint x="76.75" y="696" as="sourcePoint" />
          </mxGeometry>
        </mxCell>
        <mxCell id="aK-g2HT-L3vT9YYnwIVH-90" style="edgeStyle=orthogonalEdgeStyle;rounded=0;orthogonalLoop=1;jettySize=auto;html=1;exitX=0.5;exitY=1;exitDx=0;exitDy=0;entryX=0.5;entryY=0;entryDx=0;entryDy=0;" parent="aK-g2HT-L3vT9YYnwIVH-35" source="aK-g2HT-L3vT9YYnwIVH-39" target="aK-g2HT-L3vT9YYnwIVH-89" edge="1">
          <mxGeometry relative="1" as="geometry" />
        </mxCell>
        <mxCell id="aK-g2HT-L3vT9YYnwIVH-39" value="Filter device list by search query" style="whiteSpace=wrap;rounded=1;fontSize=19;fillColor=#fff2cc;strokeColor=#d6b656;fontStyle=1" parent="aK-g2HT-L3vT9YYnwIVH-35" vertex="1">
          <mxGeometry x="518" y="402" width="200" height="62.5" as="geometry" />
        </mxCell>
        <mxCell id="aK-g2HT-L3vT9YYnwIVH-43" style="edgeStyle=orthogonalEdgeStyle;rounded=0;orthogonalLoop=1;jettySize=auto;html=1;exitX=0.5;exitY=1;exitDx=0;exitDy=0;entryX=0.5;entryY=0;entryDx=0;entryDy=0;" parent="aK-g2HT-L3vT9YYnwIVH-35" edge="1">
          <mxGeometry relative="1" as="geometry">
            <mxPoint x="500" y="681.5" as="sourcePoint" />
          </mxGeometry>
        </mxCell>
        <mxCell id="aK-g2HT-L3vT9YYnwIVH-93" style="edgeStyle=orthogonalEdgeStyle;rounded=0;orthogonalLoop=1;jettySize=auto;html=1;exitX=0.5;exitY=1;exitDx=0;exitDy=0;entryX=0.5;entryY=0;entryDx=0;entryDy=0;" parent="aK-g2HT-L3vT9YYnwIVH-35" source="aK-g2HT-L3vT9YYnwIVH-89" target="aK-g2HT-L3vT9YYnwIVH-94" edge="1">
          <mxGeometry relative="1" as="geometry">
            <mxPoint x="618" y="687" as="targetPoint" />
          </mxGeometry>
        </mxCell>
        <mxCell id="aK-g2HT-L3vT9YYnwIVH-89" value="Display updated&#xa;device list" style="whiteSpace=wrap;rounded=1;fontSize=19;fillColor=#fff2cc;strokeColor=#d6b656;fontStyle=1" parent="aK-g2HT-L3vT9YYnwIVH-35" vertex="1">
          <mxGeometry x="518" y="552" width="200" height="62.5" as="geometry" />
        </mxCell>
        <mxCell id="aK-g2HT-L3vT9YYnwIVH-94" value="" style="ellipse;html=1;shape=endState;fillColor=strokeColor;fontStyle=1" parent="aK-g2HT-L3vT9YYnwIVH-35" vertex="1">
          <mxGeometry x="603" y="681" width="30" height="32" as="geometry" />
        </mxCell>
        <mxCell id="dj5l02gitvoQIKbpYGQg-6" style="edgeStyle=orthogonalEdgeStyle;rounded=0;orthogonalLoop=1;jettySize=auto;html=1;exitX=0.5;exitY=1;exitDx=0;exitDy=0;entryX=0.5;entryY=0;entryDx=0;entryDy=0;" edge="1" parent="aK-g2HT-L3vT9YYnwIVH-35" source="aK-g2HT-L3vT9YYnwIVH-95" target="dj5l02gitvoQIKbpYGQg-1">
          <mxGeometry relative="1" as="geometry">
            <mxPoint x="270" y="732.0000000000002" as="targetPoint" />
          </mxGeometry>
        </mxCell>
        <mxCell id="aK-g2HT-L3vT9YYnwIVH-95" value="Sort device listÂ byÂ &#xa;selected columnÂ " style="whiteSpace=wrap;rounded=1;fontSize=19;fillColor=#fff2cc;strokeColor=#d6b656;fontStyle=1" parent="aK-g2HT-L3vT9YYnwIVH-35" vertex="1">
          <mxGeometry x="170" y="551" width="200" height="62.5" as="geometry" />
        </mxCell>
        <mxCell id="dj5l02gitvoQIKbpYGQg-11" style="edgeStyle=orthogonalEdgeStyle;rounded=0;orthogonalLoop=1;jettySize=auto;html=1;exitX=0.5;exitY=1;exitDx=0;exitDy=0;entryX=0.5;entryY=0;entryDx=0;entryDy=0;" edge="1" parent="aK-g2HT-L3vT9YYnwIVH-35" source="dj5l02gitvoQIKbpYGQg-1" target="dj5l02gitvoQIKbpYGQg-10">
          <mxGeometry relative="1" as="geometry" />
        </mxCell>
        <mxCell id="dj5l02gitvoQIKbpYGQg-1" value="Display sorted device list" style="whiteSpace=wrap;rounded=1;fontSize=19;fillColor=#fff2cc;strokeColor=#d6b656;fontStyle=1" vertex="1" parent="aK-g2HT-L3vT9YYnwIVH-35">
          <mxGeometry x="170" y="732" width="200" height="62.5" as="geometry" />
        </mxCell>
        <mxCell id="dj5l02gitvoQIKbpYGQg-10" value="" style="ellipse;html=1;shape=endState;fillColor=strokeColor;fontStyle=1" vertex="1" parent="aK-g2HT-L3vT9YYnwIVH-35">
          <mxGeometry x="255" y="855" width="30" height="32" as="geometry" />
        </mxCell>
        <mxCell id="dj5l02gitvoQIKbpYGQg-16" style="edgeStyle=orthogonalEdgeStyle;rounded=0;orthogonalLoop=1;jettySize=auto;html=1;exitX=0.5;exitY=1;exitDx=0;exitDy=0;entryX=0.5;entryY=0;entryDx=0;entryDy=0;" edge="1" parent="aK-g2HT-L3vT9YYnwIVH-35" source="dj5l02gitvoQIKbpYGQg-13" target="dj5l02gitvoQIKbpYGQg-15">
          <mxGeometry relative="1" as="geometry" />
        </mxCell>
        <mxCell id="dj5l02gitvoQIKbpYGQg-13" value="Filter device list by&#xa;selected filter" style="whiteSpace=wrap;rounded=1;fontSize=19;fillColor=#fff2cc;strokeColor=#d6b656;fontStyle=1" vertex="1" parent="aK-g2HT-L3vT9YYnwIVH-35">
          <mxGeometry x="170" y="961" width="200" height="62.5" as="geometry" />
        </mxCell>
        <mxCell id="dj5l02gitvoQIKbpYGQg-18" style="edgeStyle=orthogonalEdgeStyle;rounded=0;orthogonalLoop=1;jettySize=auto;html=1;exitX=0.5;exitY=1;exitDx=0;exitDy=0;entryX=0.5;entryY=0;entryDx=0;entryDy=0;" edge="1" parent="aK-g2HT-L3vT9YYnwIVH-35" source="dj5l02gitvoQIKbpYGQg-15" target="dj5l02gitvoQIKbpYGQg-17">
          <mxGeometry relative="1" as="geometry" />
        </mxCell>
        <mxCell id="dj5l02gitvoQIKbpYGQg-15" value="Display filtered&#xa;device list" style="whiteSpace=wrap;rounded=1;fontSize=19;fillColor=#fff2cc;strokeColor=#d6b656;fontStyle=1" vertex="1" parent="aK-g2HT-L3vT9YYnwIVH-35">
          <mxGeometry x="170" y="1102" width="200" height="62.5" as="geometry" />
        </mxCell>
        <mxCell id="dj5l02gitvoQIKbpYGQg-17" value="" style="ellipse;html=1;shape=endState;fillColor=strokeColor;fontStyle=1" vertex="1" parent="aK-g2HT-L3vT9YYnwIVH-35">
          <mxGeometry x="255" y="1242" width="30" height="32" as="geometry" />
        </mxCell>
        <mxCell id="aK-g2HT-L3vT9YYnwIVH-75" value="Search, Sort and Filter Devices Process" style="text;html=1;align=center;verticalAlign=middle;whiteSpace=wrap;rounded=0;fontSize=29;fontStyle=1" parent="1" vertex="1">
          <mxGeometry x="-360" y="78" width="580" height="50" as="geometry" />
        </mxCell>
        <mxCell id="aK-g2HT-L3vT9YYnwIVH-88" style="edgeStyle=orthogonalEdgeStyle;rounded=0;orthogonalLoop=1;jettySize=auto;html=1;exitX=1;exitY=0.5;exitDx=0;exitDy=0;entryX=0;entryY=0.5;entryDx=0;entryDy=0;" parent="1" source="aK-g2HT-L3vT9YYnwIVH-7" target="aK-g2HT-L3vT9YYnwIVH-39" edge="1">
          <mxGeometry relative="1" as="geometry" />
        </mxCell>
        <mxCell id="aK-g2HT-L3vT9YYnwIVH-96" style="edgeStyle=orthogonalEdgeStyle;rounded=0;orthogonalLoop=1;jettySize=auto;html=1;exitX=1;exitY=0.5;exitDx=0;exitDy=0;entryX=0;entryY=0.5;entryDx=0;entryDy=0;" parent="1" source="aK-g2HT-L3vT9YYnwIVH-27" target="aK-g2HT-L3vT9YYnwIVH-95" edge="1">
          <mxGeometry relative="1" as="geometry" />
        </mxCell>
        <mxCell id="dj5l02gitvoQIKbpYGQg-14" style="edgeStyle=orthogonalEdgeStyle;rounded=0;orthogonalLoop=1;jettySize=auto;html=1;exitX=1;exitY=0.5;exitDx=0;exitDy=0;entryX=0;entryY=0.5;entryDx=0;entryDy=0;" edge="1" parent="1" source="aK-g2HT-L3vT9YYnwIVH-18" target="dj5l02gitvoQIKbpYGQg-13">
          <mxGeometry relative="1" as="geometry" />
        </mxCell>
      </root>
    </mxGraphModel>
  </diagram>
</mxfile>
